<svg xmlns="http://www.w3.org/2000/svg" width="2855" height="834" viewBox="0 0 2855 834">
  <g fill="none" fill-rule="evenodd">
    <ellipse cx="465.114" cy="417" fill="#0B3D91" rx="412.652" ry="417"/>
    <g transform="translate(0 26.862)">
      <ellipse cx="443.839" cy="50.084" fill="#FFF" rx="4.612" ry="4.666"/>
      <ellipse cx="491.191" cy="56.305" fill="#FFF" rx="4.612" ry="4.666"/>
      <ellipse cx="553.301" cy="140.921" fill="#FFF" rx="4.612" ry="4.666"/>
      <ellipse cx="212.616" cy="576.443" fill="#FFF" rx="4.612" ry="4.666"/>
      <ellipse cx="224.607" cy="613.774" fill="#FFF" rx="4.612" ry="4.666"/>
      <ellipse cx="167.416" cy="582.043" fill="#FFF" rx="3.454" ry="3.495"/>
      <ellipse cx="354.978" cy="655.376" fill="#FFF" rx="3.464" ry="3.505"/>
      <ellipse cx="649.152" cy="593.553" fill="#FFF" rx="3.454" ry="3.495"/>
      <ellipse cx="734.641" cy="499.605" fill="#FFF" rx="3.464" ry="3.505"/>
      <ellipse cx="315.621" cy="168.214" fill="#FFF" rx="3.454" ry="3.495"/>
      <ellipse cx="409.709" cy="98.302" fill="#FFF" rx="3.454" ry="3.495"/>
      <ellipse cx="399.49" cy="91.458" fill="#FFF" rx="3.454" ry="3.495"/>
      <ellipse cx="390.266" cy="84.614" fill="#FFF" rx="3.454" ry="3.495"/>
      <ellipse cx="330.38" cy="186.267" fill="#FFF" rx="3.454" ry="3.495"/>
      <ellipse cx="468.97" cy="4.354" fill="#FFF" rx="3.454" ry="3.495"/>
      <ellipse cx="491.734" cy="105.146" fill="#FFF" rx="3.454" ry="3.495"/>
      <ellipse cx="455.831" cy="85.465" fill="#FFF" rx="3.454" ry="3.495"/>
      <ellipse cx="394.335" cy="112.228" fill="#FFF" rx="3.454" ry="3.495"/>
      <ellipse cx="665.531" cy="685.873" fill="#FFF" rx="3.454" ry="3.495"/>
      <ellipse cx="206.774" cy="600.086" fill="#FFF" rx="3.464" ry="3.505"/>
      <ellipse cx="447.221" cy="645.193" fill="#FFF" rx="3.464" ry="3.505"/>
      <ellipse cx="278.334" cy="597.286" fill="#FFF" rx="3.464" ry="3.505"/>
      <ellipse cx="308.241" cy="646.676" fill="#FFF" rx="3.464" ry="3.505"/>
      <ellipse cx="528.395" cy="615.567" fill="#FFF" rx="3.454" ry="3.495"/>
      <ellipse cx="649.767" cy="546.268" fill="#FFF" rx="3.454" ry="3.495"/>
      <ellipse cx="741.785" cy="588.804" fill="#FFF" rx="3.454" ry="3.495"/>
      <ellipse cx="773.148" cy="609.107" fill="#FFF" rx="3.454" ry="3.495"/>
      <ellipse cx="778.303" cy="553.734" fill="#FFF" rx="3.454" ry="3.495"/>
      <ellipse cx="320.766" cy="475.34" fill="#FFF" rx="3.454" ry="3.495"/>
      <ellipse cx="322.078" cy="555.6" fill="#FFF" rx="4.612" ry="4.666"/>
      <ellipse cx="349.751" cy="614.707" fill="#FFF" rx="4.612" ry="4.666"/>
      <ellipse cx="681.212" cy="553.112" fill="#FFF" rx="4.612" ry="4.666"/>
      <ellipse cx="800.513" cy="546.268" fill="#FFF" rx="4.612" ry="4.666"/>
      <ellipse cx="741.478" cy="520.758" fill="#FFF" rx="4.612" ry="4.666"/>
      <ellipse cx="681.212" cy="523.247" fill="#FFF" rx="4.612" ry="4.666"/>
      <path fill="#FFF" d="M556.898672 47.1594425L568.367599 46.0498984 556.91917 45.3966155C556.560446 43.1567882 554.787323 41.4043308 552.552983 41.1139828L551.456312 29.5622812 550.800359 41.207309C548.730007 41.6739396 547.141371 43.4263971 546.88514 45.6040069L535.15998 46.6824422 546.967134 47.3253556C547.397603 49.3266827 548.996488 50.8924879 551.005344 51.2657924L552.071268 63.1700594 552.696473 51.2865315C554.818071 50.9235966 556.49895 49.2748348 556.898672 47.1594425zM363.331049 176.343552L374.799977 175.234008 363.351548 174.580725C363.003073 172.340898 361.2197 170.588441 358.985361 170.298093L357.888689 158.746391 357.242986 170.391419C355.162385 170.85805 353.573749 172.610507 353.317517 174.788117L341.592358 175.866552 353.399511 176.509466C353.82998 178.510793 355.428866 180.076598 357.437722 180.449902L358.503645 192.354169 359.1391 180.470641C361.260697 180.118076 362.941577 178.458945 363.331049 176.343552zM792.109059 517.896467L803.577987 516.786923 792.129557 516.13364C791.781082 513.893813 789.99771 512.141356 787.76337 511.851008L786.666699 500.299306 786.020995 511.944334C783.950644 512.410964 782.362008 514.163422 782.105776 516.341032L770.380617 517.419467 782.18777 518.06238C782.618239 520.063707 784.217125 521.629513 786.225981 522.002817L787.291904 533.907084 787.927359 522.023556C790.028458 521.670991 791.709338 520.022229 792.109059 517.896467zM324.588827 696.481211L336.057754 695.371667 324.609325 694.718384C324.250601 692.478557 322.477478 690.7261 320.243138 690.435752L319.146467 678.89442 318.500763 690.529078C316.420162 690.995708 314.831526 692.748166 314.575294 694.925776L302.850135 696.004211 314.657289 696.647124C315.087758 698.648452 316.686643 700.224626 318.695499 700.587561L319.761423 712.491828 320.396877 700.6083C322.508226 700.255735 324.199354 698.596604 324.588827 696.481211zM755.672921 609.376819L767.141849 608.267275 755.69342 607.613992C755.344945 605.374164 753.561572 603.621707 751.327233 603.331359L750.230561 591.779657 749.584858 603.414316C747.514506 603.880946 745.92587 605.633404 745.669638 607.811013L733.944479 608.889449 745.751632 609.532362C746.182102 611.533689 747.780987 613.099494 749.789843 613.472799L750.855766 625.377066 751.491221 613.493538C753.59232 613.151342 755.283449 611.492211 755.672921 609.376819z"/>
      <path fill="#FC3D21" fill-rule="nonzero" d="M565.692541,286.665413 C517.859221,305.475814 471.204565,322.264149 431.837138,334.728373 C351.841623,360.071603 132.968564,428.676682 0.753043112,515.158901 L11.8222495,519.51412 C92.3814741,473.473227 144.74497,459.007676 195.079111,442.98669 C249.810188,425.565811 426.743253,383.672746 506.861759,360.859691 C533.930068,353.1551 565.631046,343.065508 599.207638,330.787936 C591.397698,319.765083 583.157289,308.71112 574.486411,297.677897 C571.585869,293.955222 568.64433,290.284394 565.692541,286.665413 Z M624.133851,368.159868 C612.552182,376.071851 602.846128,382.386919 596.050865,386.368834 C556.693686,409.389281 364.817192,541.912393 321.165572,572.39893 C277.513951,602.885467 156.357387,718.609875 120.689945,752.207283 L119.460033,765.884747 C234.456788,661.359476 270.534202,635.580723 316.245925,600.396771 C372.821869,556.844574 489.858228,476.273011 529.635626,450.45278 C567.6604,425.773202 601.954442,403.074213 632.732985,382.303963 C632.230771,381.453658 631.728557,380.603353 631.226343,379.742679 C628.910009,375.895568 626.542429,372.038088 624.133851,368.159868 Z M803.895714,176.073944 C747.87323,209.298048 659.575811,249.397177 573.912452,283.419738 C575.962305,285.960283 578.001909,288.521567 580.031263,291.10359 C589.604077,303.298205 598.63368,315.575776 607.13032,327.863717 C674.467993,302.769357 748.354946,269.088991 806.980743,228.32621 C779.051495,255.100441 686.715865,324.918759 630.416651,363.835758 C633.317193,368.61613 636.125492,373.396502 638.841547,378.156134 C724.135932,320.407996 781.531817,277.903126 814.97517,249.480133 C861.096863,210.283157 966.254324,122.55659 1006.22646,4.96565988 C936.111235,95.1912933 853.215178,146.821385 803.895714,176.073944 Z"/>
      <path fill="#FFF" fill-rule="nonzero" d="M415.192331,489.431996 C406.121731,477.880294 393.576631,462.408895 384.157556,450.411302 C371.561209,434.369576 359.907794,418.161938 349.22806,401.975038 C345.74331,402.856452 342.268809,403.737865 338.794308,404.619279 C351.687884,424.974746 366.006107,445.299104 381.605489,465.167201 C393.002672,479.6846 403.364679,491.371106 408.673798,498.640175 C409.749971,500.112654 411.881818,503.368699 414.761862,507.703179 C418.082624,505.421874 421.434133,503.119829 424.816391,500.797045 C421.546875,497.198804 418.318357,493.413911 415.192331,489.431996 Z M481.402584,550.239158 C473.951368,543.104893 455.881914,531.190257 437.074512,513.313117 C432.92356,516.195858 428.73161,519.120077 424.529412,522.065035 C436.674791,539.382217 453.217105,560.650207 466.172176,566.85121 C485.686777,576.204562 490.94465,559.385119 481.402584,550.239158 Z M580.031263,291.10359 C472.495973,154.163041 341.131141,78.9318066 284.493701,124.464591 C240.503855,159.824827 258.56306,263.167967 319.197713,371.727001 C322.333988,370.638196 325.439516,369.57013 328.514295,368.512434 C267.315933,262.742814 250.568633,164.449655 292.057659,131.090747 C344.195671,89.1769423 470.087395,164.698525 574.506909,297.667528 C596.12261,325.188368 615.124747,352.812904 631.216094,379.742679 C692.834676,482.919906 711.74457,576.225302 669.169123,614.312734 C656.142307,625.968132 616.334161,630.541112 564.185899,606.794796 C563.458201,607.717687 564.626618,610.216754 565.538802,610.828559 C610.553575,629.14122 653.672234,636.119941 675.441673,618.626476 C727.753923,576.567497 687.566554,428.044138 580.031263,291.10359 Z"/>
      <path fill="#FFF" d="M118.834828,307.352707 L187.70989,307.352707 L245.515745,406.589497 C245.515745,406.589497 245.515745,334.728373 245.515745,329.128805 C245.515745,320.418366 234.600278,309.063686 230.756804,307.352707 C235.368973,307.352707 275.648585,307.352707 278.415887,307.352707 C275.494846,308.130425 266.116769,319.640648 266.116769,329.128805 C266.116769,333.795112 266.116769,438.009296 266.116769,442.98669 C266.116769,449.98615 276.109802,459.62985 280.87571,463.362896 L214.460472,463.362896 L155.732182,363.659475 C155.732182,363.659475 155.732182,438.009296 155.732182,442.053428 C155.732182,449.830606 163.265392,457.296697 171.10608,463.673983 L120.372217,463.673983 C127.597949,460.563112 134.516203,450.763867 135.131159,442.98669 C135.746115,435.209512 135.131159,334.883917 135.131159,330.528697 C135.131159,321.04054 126.06056,313.263362 118.834828,307.352707 Z"/>
      <path fill="#FFF" fill-rule="nonzero" d="M748.85716 463.362896L840.485591 463.362896C835.412204 462.118547 829.723862 456.052348 826.649083 447.964083 823.574303 439.875818 774.992786 307.352707 774.992786 307.352707L740.155534 307.352707C730.275242 314.549189 719.687751 322.139714 708.382811 330.134653 708.352064 330.425001 708.321316 330.715349 708.27007 330.995328 706.753178 340.327941 679.490133 440.228384 677.829752 445.164299 675.523667 452.008216 663.685766 459.62985 658.919858 463.673983L708.27007 463.673983C703.350422 458.074415 699.353209 452.63039 700.275643 446.408648 701.198077 440.186906 703.965378 427.743421 703.965378 427.743421L755.006719 427.743421C757.312804 433.965163 759.03468 439.554362 759.926366 444.853212 761.002539 451.230498 754.545502 458.385502 748.85716 463.362896zM708.577548 407.833845L725.796313 350.904903 748.549682 407.833845 708.577548 407.833845zM700.818854 313.035231C703.350422 311.14797 705.89224 309.250338 708.423809 307.352707L695.048517 307.352707C696.380922 308.597055 698.584514 310.556904 700.818854 313.035231zM350.365729 446.408648C351.288162 440.186906 354.055464 427.743421 354.055464 427.743421L405.096805 427.743421C407.402889 433.965163 409.124766 439.554362 410.016452 444.853212 411.092625 451.230498 404.635588 458.385502 398.947246 463.362896L479.619212 463.362896C481.300092 462.222243 482.970722 461.08159 484.641352 459.951307 481.515326 457.151523 478.635283 452.951847 476.739169 447.964083 473.664389 439.875818 425.082872 307.352707 425.082872 307.352707L345.138603 307.352707C348.982078 310.930209 360.051284 320.573909 358.360155 330.995328 356.853513 340.327941 329.580219 440.228384 327.919838 445.164299 325.613753 452.008216 313.775852 459.62985 309.009943 463.673983L358.360155 463.673983C353.440508 458.074415 349.443295 452.63039 350.365729 446.408648zM375.886399 350.904903L398.639768 407.833845 358.667633 407.833845 375.886399 350.904903zM629.033 384.79266C613.987079 394.9341 598.110967 405.521431 581.384166 416.575393 588.886628 420.256591 594.86195 424.881419 595.435909 430.854292 596.501832 442.074167 574.21993 447.497453 554.080124 445.164299 550.052163 444.697669 546.095946 443.629603 542.324217 442.198602 538.142516 444.925799 533.919819 447.673735 529.635626 450.45278 525.279689 453.283673 519.991068 456.767849 513.954251 460.791242L513.954251 476.895185C517.951464 468.962464 526.694087 461.859308 533.479101 461.496373 536.400141 461.340829 546.546914 470.828987 588.363916 468.495833 608.657461 467.36555 647.8609 445.475387 647.245945 420.27733 646.876971 405.386627 639.190022 393.772708 629.033 384.79266zM513.944001 423.699288L513.944001 440.103949C517.643986 437.604882 521.292724 435.147294 524.869718 432.751923 519.242871 428.790747 515.255907 425.088811 513.944001 423.699288zM614.735275 374.495676C610.840555 372.162523 606.894587 370.119717 603.112609 368.315412 583.434019 358.982799 562.832996 357.271819 558.528305 344.672791 555.494522 335.786069 564.062908 327.563 584.971409 327.874087 605.87991 328.185174 625.251021 340.784202 630.478147 345.294965L630.478147 305.164727C628.940757 306.720163 622.19674 314.549189 616.026683 313.252992 604.188781 310.764295 584.048975 307.51862 560.988129 307.653424 534.545024 307.808968 511.791656 328.485892 511.022961 354.627579 509.946788 391.180315 538.849716 401.135103 555.146047 406.890214 556.826927 407.48128 558.743539 408.113824 560.82414 408.787846 576.45427 398.501232 588.814884 390.57888 596.050865 386.358465 600.909017 383.527572 607.27381 379.4627 614.735275 374.495676z"/>
    </g>
    <path fill="#3A3E41" d="M1675.40447,243.107556 C1693.16718,243.107556 1707.96944,249.454222 1719.17687,257.281778 L1707.75798,276.956444 C1695.91617,270.609778 1685.76605,266.801778 1674.34717,266.801778 C1658.69906,266.801778 1654.25838,274.840889 1654.25838,284.149333 C1654.25838,312.497778 1724.04047,295.996444 1724.04047,350.366222 C1724.04047,378.926222 1703.3173,394.581333 1674.77009,394.581333 C1651.50939,394.581333 1636.07275,386.965333 1623.80802,378.714667 L1635.2269,359.674667 C1647.06871,366.021333 1660.17929,370.887111 1672.65548,370.887111 C1691.05257,370.887111 1697.81932,361.790222 1697.81932,351.847111 C1697.81932,316.517333 1628.2487,337.038222 1628.2487,284.995556 C1628.2487,256.858667 1647.91456,243.107556 1675.40447,243.107556 Z M1453.58202,243.107556 C1477.05417,243.107556 1492.49082,253.896889 1501.16071,273.571556 L1480.43755,284.360889 C1472.82496,271.667556 1464.36652,267.436444 1453.58202,267.436444 C1434.12762,267.436444 1427.57233,279.495111 1427.57233,297.900444 L1427.57233,339.788444 C1427.57233,358.193778 1434.762,370.252444 1454.2164,370.252444 C1465.0009,370.252444 1473.45934,367.502222 1481.07193,353.539556 L1501.7951,363.694222 C1491.85643,384.849778 1477.68856,394.581333 1454.2164,394.581333 C1416.78783,394.581333 1400.92826,371.733333 1400.92826,337.672889 L1400.92826,300.016 C1400.92826,265.955556 1416.15344,243.107556 1453.58202,243.107556 Z M1022.83623,243.107556 C1046.30838,243.107556 1061.74503,253.896889 1070.41492,273.571556 L1049.69176,284.360889 C1042.07917,271.667556 1033.62073,267.436444 1022.83623,267.436444 C1003.38183,267.436444 996.826539,279.495111 996.826539,297.900444 L996.826539,339.788444 C996.826539,358.193778 1004.01621,370.252444 1023.47061,370.252444 C1034.25511,370.252444 1042.71355,367.502222 1050.32614,353.539556 L1071.0493,363.694222 C1061.11064,384.849778 1046.94277,394.581333 1023.47061,394.581333 C986.042035,394.581333 970.18247,371.733333 970.18247,337.672889 L970.18247,300.016 C970.18247,265.955556 985.407652,243.107556 1022.83623,243.107556 Z M902.09207,243.107556 C919.854783,243.107556 934.657043,249.454222 945.86447,257.281778 L934.445583,276.956444 C922.603774,270.609778 912.453652,266.801778 901.034765,266.801778 C885.386661,266.801778 880.945983,274.840889 880.945983,284.149333 C880.945983,312.497778 950.72807,295.996444 950.72807,350.366222 C950.72807,378.926222 930.004904,394.581333 901.457687,394.581333 C878.196991,394.581333 862.760348,386.965333 850.495617,378.714667 L861.914504,359.674667 C873.756313,366.021333 886.866887,370.887111 899.343078,370.887111 C917.740174,370.887111 924.506922,361.790222 924.506922,351.847111 C924.506922,316.517333 854.936296,337.038222 854.936296,284.995556 C854.936296,256.858667 874.602157,243.107556 902.09207,243.107556 Z M1605.83384,244.8 L1605.83384,268.071111 L1549.37379,268.071111 L1549.37379,305.728 L1601.1817,305.728 L1601.1817,328.999111 L1549.37379,328.999111 L1549.37379,369.617778 L1605.83384,369.617778 L1605.83384,392.888889 L1522.72972,392.888889 L1522.72972,244.8 L1605.83384,244.8 Z M1287.16231,244.8 L1346.58282,342.327111 L1347.42866,342.327111 L1347.42866,244.8 L1372.5925,244.8 L1372.5925,392.888889 L1349.33181,392.888889 L1290.33423,295.361778 L1289.48838,295.361778 L1289.48838,392.888889 L1264.32454,392.888889 L1264.32454,244.8 L1287.16231,244.8 Z M1235.14294,244.8 L1235.14294,268.071111 L1178.68289,268.071111 L1178.68289,305.728 L1230.4908,305.728 L1230.4908,328.999111 L1178.68289,328.999111 L1178.68289,369.617778 L1235.14294,369.617778 L1235.14294,392.888889 L1152.03882,392.888889 L1152.03882,244.8 L1235.14294,244.8 Z M1118.628,244.8 L1118.628,392.888889 L1091.98393,392.888889 L1091.98393,244.8 L1118.628,244.8 Z M720.658643,244.8 C756.818452,244.8 780.290609,268.705778 780.290609,318.421333 C780.290609,363.905778 756.818452,392.888889 725.310783,392.888889 L672.868487,392.888889 L672.868487,244.8 L720.658643,244.8 Z M643.686887,244.8 L643.686887,268.071111 L587.226835,268.071111 L587.226835,305.728 L639.034748,305.728 L639.034748,328.999111 L587.226835,328.999111 L587.226835,369.617778 L643.686887,369.617778 L643.686887,392.888889 L560.582765,392.888889 L560.582765,244.8 L643.686887,244.8 Z M527.171948,244.8 L527.171948,392.888889 L500.527878,392.888889 L500.527878,244.8 L527.171948,244.8 Z M419.326904,244.8 L419.326904,369.617778 L475.786957,369.617778 L475.786957,392.888889 L392.682835,392.888889 L392.682835,244.8 L419.326904,244.8 Z M312.539165,244.8 C346.161443,244.8 366.461687,254.531556 366.461687,293.457778 C366.461687,327.729778 347.218748,341.692444 314.442313,341.692444 L295.622296,341.692444 L295.622296,392.888889 L268.978226,392.888889 L268.978226,244.8 L312.539165,244.8 Z M188.834557,244.8 C222.456835,244.8 242.757078,254.531556 242.757078,293.457778 C242.757078,327.729778 223.514139,341.692444 190.737704,341.692444 L171.917687,341.692444 L171.917687,392.888889 L145.273617,392.888889 L145.273617,244.8 L188.834557,244.8 Z M76.7602957,244.8 L124.550452,392.888889 L97.4834609,392.888889 L87.3333391,360.097778 L41.2348696,360.097778 L30.873287,392.888889 L4.01775652,392.888889 L51.807913,244.8 L76.7602957,244.8 Z M718.966957,268.071111 L699.301096,268.071111 L699.301096,369.617778 L718.966957,369.617778 C746.879791,369.617778 753.223617,345.077333 753.223617,318.421333 C753.223617,294.515556 746.879791,268.071111 718.966957,268.071111 Z M64.7070261,282.245333 L63.8611826,282.245333 L47.3672348,336.615111 L81.2009739,336.615111 L64.7070261,282.245333 Z M311.904783,268.071111 L295.622296,268.071111 L295.622296,318.421333 L313.385009,318.421333 C332.416487,318.421333 339.606157,310.382222 339.606157,292.611556 C339.606157,273.994667 332.205026,268.071111 311.904783,268.071111 Z M188.200174,268.071111 L171.917687,268.071111 L171.917687,318.421333 L189.6804,318.421333 C208.711878,318.421333 215.901548,310.382222 215.901548,292.611556 C215.901548,273.994667 208.500417,268.071111 188.200174,268.071111 Z M748.544212,-1.0658141e-14 C766.249664,-1.0658141e-14 781.004208,6.33147114 792.175506,14.1402855 L780.793429,33.7678461 C768.989794,27.4363749 758.872392,23.6374922 747.490316,23.6374922 C731.892655,23.6374922 727.466291,31.6573557 727.466291,40.9435133 C727.466291,69.2240844 797.023428,52.7622595 797.023428,107.001862 C797.023428,135.493482 776.367066,151.111111 747.911874,151.111111 C724.726162,151.111111 709.33928,143.513346 697.114087,135.282433 L708.496163,116.28802 C720.299799,122.619491 733.368109,127.473619 745.804082,127.473619 C764.141872,127.473619 770.886807,118.39851 770.886807,108.479205 C770.886807,73.2340161 701.54045,93.7057728 701.54045,41.7877095 C701.54045,13.7181875 721.142915,-1.0658141e-14 748.544212,-1.0658141e-14 Z M1298.25637,-1.0658141e-14 C1321.65286,-1.0658141e-14 1337.03974,10.7635009 1345.68169,30.3910615 L1325.02533,41.1545624 C1317.43727,28.4916201 1309.00611,24.2706394 1298.25637,24.2706394 C1278.86468,24.2706394 1272.33053,36.3004345 1272.33053,54.6617008 L1272.33053,96.4494103 C1272.33053,114.810677 1279.49702,126.840472 1298.8887,126.840472 C1309.63844,126.840472 1318.06961,124.096834 1325.65766,110.167598 L1346.31402,120.297952 C1336.4074,141.402855 1322.2852,151.111111 1298.8887,151.111111 C1261.58079,151.111111 1245.77235,128.317815 1245.77235,94.3389199 L1245.77235,56.7721912 C1245.77235,22.7932961 1260.94845,-1.0658141e-14 1298.25637,-1.0658141e-14 Z M868.899135,-1.0658141e-14 C892.295626,-1.0658141e-14 907.682508,10.7635009 916.324455,30.3910615 L895.668094,41.1545624 C888.080042,28.4916201 879.648874,24.2706394 868.899135,24.2706394 C849.507449,24.2706394 842.973293,36.3004345 842.973293,54.6617008 L842.973293,96.4494103 C842.973293,114.810677 850.139786,126.840472 869.531473,126.840472 C880.281212,126.840472 888.71238,124.096834 896.300431,110.167598 L916.956793,120.297952 C907.05017,141.402855 892.927964,151.111111 869.531473,151.111111 C832.223554,151.111111 816.415114,128.317815 816.415114,94.3389199 L816.415114,56.7721912 C816.415114,22.7932961 831.591217,-1.0658141e-14 868.899135,-1.0658141e-14 Z M491.182807,1.6883923 L491.182807,24.9037865 L452.188655,24.9037865 L452.188655,149.422719 L425.630476,149.422719 L425.630476,24.9037865 L386.636324,24.9037865 L386.636324,1.6883923 L491.182807,1.6883923 Z M1450.01739,1.6883923 L1450.01739,24.9037865 L1393.73934,24.9037865 L1393.73934,62.4705152 L1445.38025,62.4705152 L1445.38025,85.6859094 L1393.73934,85.6859094 L1393.73934,126.207325 L1450.01739,126.207325 L1450.01739,149.422719 L1367.18117,149.422719 L1367.18117,1.6883923 L1450.01739,1.6883923 Z M1132.37314,1.6883923 L1191.60209,98.9819988 L1192.44521,98.9819988 L1192.44521,1.6883923 L1217.52793,1.6883923 L1217.52793,149.422719 L1194.34222,149.422719 L1135.53482,52.1291124 L1134.69171,52.1291124 L1134.69171,149.422719 L1109.60898,149.422719 L1109.60898,1.6883923 L1132.37314,1.6883923 Z M1080.52145,1.6883923 L1080.52145,24.9037865 L1024.24341,24.9037865 L1024.24341,62.4705152 L1075.88431,62.4705152 L1075.88431,85.6859094 L1024.24341,85.6859094 L1024.24341,126.207325 L1080.52145,126.207325 L1080.52145,149.422719 L997.685227,149.422719 L997.685227,1.6883923 L1080.52145,1.6883923 Z M964.382113,1.6883923 L964.382113,149.422719 L937.823934,149.422719 L937.823934,1.6883923 L964.382113,1.6883923 Z M542.823712,1.6883923 L542.823712,62.2594662 L594.464616,62.2594662 L594.464616,1.6883923 L621.022795,1.6883923 L621.022795,149.422719 L594.464616,149.422719 L594.464616,85.6859094 L542.823712,85.6859094 L542.823712,149.422719 L516.265532,149.422719 L516.265532,1.6883923 L542.823712,1.6883923 Z M314.760617,1.6883923 C347.642172,1.6883923 367.666196,14.7734327 367.666196,48.5412787 C367.666196,75.7666046 353.122431,86.5301055 341.951133,90.9621353 L373.778793,149.422719 L344.269705,149.422719 L316.657629,95.1831161 L296.633605,95.1831161 L296.633605,149.422719 L270.286205,149.422719 L270.286205,1.6883923 L314.760617,1.6883923 Z M201.993744,1.6883923 L249.629844,149.422719 L222.650106,149.422719 L212.532704,116.710118 L166.582838,116.710118 L156.254658,149.422719 L129.485699,149.422719 L177.121799,1.6883923 L201.993744,1.6883923 Z M113.044922,1.6883923 L113.044922,24.9037865 L56.7668749,24.9037865 L56.7668749,62.4705152 L108.407779,62.4705152 L108.407779,85.6859094 L56.7668749,85.6859094 L56.7668749,126.207325 L113.044922,126.207325 L113.044922,149.422719 L30.2086957,149.422719 L30.2086957,1.6883923 L113.044922,1.6883923 Z M189.97933,39.044072 L189.136213,39.044072 L172.695435,93.2836747 L206.420107,93.2836747 L189.97933,39.044072 Z M313.495941,24.9037865 L296.633605,24.9037865 L296.633605,71.9677219 L315.603733,71.9677219 C331.622953,71.9677219 340.897237,66.0583489 340.897237,48.5412787 C340.897237,29.9689634 331.201394,24.9037865 313.495941,24.9037865 Z" transform="translate(1130 208)"/>
  </g>
</svg>
